<svg xmlns="http://www.w3.org/2000/svg" version="1.1" xmlns:xlink="http://www.w3.org/1999/xlink" xmlns:svgjs="http://svgjs.dev/svgjs" width="1920" height="1080" preserveAspectRatio="none" viewBox="0 0 1920 1080"><g mask="url(&quot;#SvgjsMask1005&quot;)" fill="none"><path d="M-68.92 669.03C140.03 665.78 314 405.99 725.79 409.83 1137.59 413.67 1261.17 1055.5 1520.51 1101.62" stroke="rgba(49, 51, 51, 1)" stroke-width="2"></path><path d="M-237.14 199.32C-85.96 200.18 57.59 334.32 352.31 334.32 647.04 334.32 593.75 168.38 941.76 199.32 1289.77 230.26 1290.44 971.9 1531.21 1084.81" stroke="rgba(49, 51, 51, 1)" stroke-width="2"></path><path d="M-364 386.6C-188.08 403.54-138.6 729 226.39 775.4 591.39 821.8 627.46 1234.63 816.79 1265.08" stroke="rgba(49, 51, 51, 1)" stroke-width="2"></path><path d="M-270.24 189.2C-83.3 197.45 62.85 440.52 404.49 513.2 746.12 585.88 590.58 1053.53 741.85 1152.33" stroke="rgba(49, 51, 51, 1)" stroke-width="2"></path><path d="M-29.37 927.68C155.57 913.85 277.09 546.15 608.93 549.68 940.78 553.21 1013.44 1219.46 1247.24 1291.59" stroke="rgba(49, 51, 51, 1)" stroke-width="2"></path></g><defs><mask id="SvgjsMask1005"><rect width="1920" height="1080" fill="#ffffff"></rect></mask></defs></svg>