<svg xmlns="http://www.w3.org/2000/svg" version="1.1" xmlns:xlink="http://www.w3.org/1999/xlink" xmlns:svgjs="http://svgjs.dev/svgjs" width="1920" height="1080" preserveAspectRatio="none" viewBox="0 0 1920 1080"><g mask="url(&quot;#SvgjsMask1010&quot;)" fill="none"><path d="M-334.51 707.8C-94.22 705.05 108.7 432.82 588.01 437.8 1067.32 442.78 1211.06 1177.68 1510.53 1229.38" stroke="rgba(49, 51, 51, 1)" stroke-width="2"></path><path d="M-371.34 609C-222.71 609.89-81.83 744 207.68 744 497.18 744 482.27 604.3 786.69 609 1091.12 613.7 1175.67 1086.04 1365.71 1120.94" stroke="rgba(49, 51, 51, 1)" stroke-width="2"></path><path d="M-241.35 1009.02C-28.84 992.11 118.75 565.57 487.39 566.22 856.02 566.87 973.87 1185.06 1216.12 1232.69" stroke="rgba(49, 51, 51, 1)" stroke-width="2"></path><path d="M-332.41 389.79C-127.94 408.22-27.05 813.61 359.19 832.59 745.44 851.57 867.02 1078.47 1050.8 1082.25" stroke="rgba(49, 51, 51, 1)" stroke-width="2"></path><path d="M-353.04 455.86C-182.34 452.58-87.01 197.11 291.14 229.06 669.28 261.01 665.32 1119.72 935.31 1258.59" stroke="rgba(49, 51, 51, 1)" stroke-width="2"></path></g><defs><mask id="SvgjsMask1010"><rect width="1920" height="1080" fill="#ffffff"></rect></mask></defs></svg>